<svg data-v-fde0c5aa="" xmlns="http://www.w3.org/2000/svg" viewBox="0 0 300 300" class="iconLeftSlogan"><!----><defs data-v-fde0c5aa=""><!----></defs><rect data-v-fde0c5aa="" fill="transparent" x="0" y="0" width="300px" height="300px" class="logo-background-square"></rect><defs data-v-fde0c5aa=""><!----></defs><g data-v-fde0c5aa="" id="8de02a13-db79-4bb6-832b-48c35b73fb9e" fill="#000000" transform="matrix(4.781874956963559,0,0,4.781874956963559,147.59140610597035,109.12024449513197)"><path d="M4.52 6.72L4.63 6.61L4.63 6.61Q4.61 6.34 4.54 6.03L4.54 6.03L4.54 6.03Q4.47 5.71 4.52 5.45L4.52 5.45L4.52 5.42L4.54 5.40L4.54 5.40Q4.54 5.38 4.55 5.36L4.55 5.36L4.55 5.36Q4.59 5.25 4.69 5.11L4.69 5.11L4.69 5.11Q4.79 4.97 4.91 4.84L4.91 4.84L4.91 4.84Q5.03 4.72 5.17 4.64L5.17 4.64L5.17 4.64Q5.31 4.56 5.45 4.59L5.45 4.59L5.45 4.59Q5.53 4.79 5.59 5.00L5.59 5.00L5.59 5.00Q5.64 5.21 5.68 5.43L5.68 5.43L5.68 5.43Q5.75 5.39 5.81 5.39L5.81 5.39L5.81 5.39Q5.88 5.39 5.91 5.46L5.91 5.46L5.92 5.45L5.92 5.45Q5.92 5.46 5.91 5.46L5.91 5.46L5.91 5.46Q5.91 5.46 5.91 5.47L5.91 5.47L5.92 5.49L5.92 5.49Q5.95 5.85 5.94 6.21L5.94 6.21L5.94 6.21Q5.92 6.57 5.92 6.93L5.92 6.93L5.92 6.93Q6.03 7.74 6.10 8.54L6.10 8.54L6.10 8.54Q6.16 9.34 6.05 10.15L6.05 10.15L6.05 10.16L6.05 10.18L6.05 10.18Q6.03 10.18 6.03 10.19L6.03 10.19L6.03 10.19Q5.99 10.29 5.88 10.45L5.88 10.45L5.88 10.45Q5.77 10.61 5.63 10.75L5.63 10.75L5.63 10.75Q5.49 10.89 5.35 10.96L5.35 10.96L5.35 10.96Q5.21 11.03 5.12 10.95L5.12 10.95L5.12 10.95Q5.10 10.79 5.09 10.65L5.09 10.65L5.09 10.65Q5.08 10.51 5.07 10.37L5.07 10.37L5.07 10.37Q5.04 10.37 5.03 10.38L5.03 10.38L5.03 10.38Q5.01 10.39 5.00 10.39L5.00 10.39L4.98 10.40L4.98 10.40Q4.84 10.37 4.79 10.36L4.79 10.36L4.79 10.36Q4.63 10.47 4.53 10.50L4.53 10.50L4.53 10.50Q4.42 10.53 4.45 10.35L4.45 10.35L4.45 10.33L4.45 10.33Q4.33 10.35 3.94 10.41L3.94 10.41L3.94 10.41Q3.56 10.47 3.09 10.53L3.09 10.53L3.09 10.53Q2.63 10.58 2.20 10.60L2.20 10.60L2.20 10.60Q1.76 10.61 1.57 10.54L1.57 10.54L1.57 10.54Q1.50 10.56 1.41 10.56L1.41 10.56L1.41 10.56Q1.33 10.57 1.26 10.57L1.26 10.57L1.26 10.57Q1.20 10.51 1.23 10.43L1.23 10.43L1.23 10.43Q1.25 10.40 1.25 10.37L1.25 10.37L1.25 10.37Q1.26 10.35 1.27 10.32L1.27 10.32L1.27 10.32Q1.06 10.26 0.94 10.08L0.94 10.08L0.94 10.08Q0.81 9.90 0.73 9.68L0.73 9.68L0.73 9.68Q0.64 9.46 0.61 9.23L0.61 9.23L0.61 9.23Q0.57 9.00 0.56 8.83L0.56 8.83L0.56 8.83Q0.48 8.06 0.56 7.28L0.56 7.28L0.56 7.28Q0.49 6.92 0.46 6.55L0.46 6.55L0.46 6.55Q0.43 6.19 0.46 5.80L0.46 5.80L0.46 5.78L0.46 5.78Q0.46 5.75 0.47 5.74L0.47 5.74L0.47 5.74Q0.48 5.73 0.48 5.70L0.48 5.70L0.48 5.70Q0.52 5.59 0.61 5.45L0.61 5.45L0.61 5.45Q0.70 5.31 0.82 5.18L0.82 5.18L0.82 5.18Q0.94 5.05 1.07 4.98L1.07 4.98L1.07 4.98Q1.20 4.90 1.34 4.91L1.34 4.91L1.34 4.91Q1.58 4.63 1.93 4.49L1.93 4.49L1.93 4.49Q2.00 4.47 2.05 4.46L2.05 4.46L2.05 4.46Q2.10 4.45 2.13 4.55L2.13 4.55L2.13 4.55Q2.14 4.68 2.11 4.82L2.11 4.82L2.11 4.82Q2.07 4.97 2.03 5.12L2.03 5.12L2.03 5.12Q2.20 4.98 2.32 4.96L2.32 4.96L2.32 4.96Q2.45 4.93 2.39 5.17L2.39 5.17L2.39 5.17Q2.27 5.52 2.23 5.94L2.23 5.94L2.23 5.94Q2.20 6.37 2.23 6.82L2.23 6.82L2.23 6.82Q2.25 7.28 2.32 7.72L2.32 7.72L2.32 7.72Q2.39 8.16 2.46 8.54L2.46 8.54L2.46 8.54Q2.46 8.54 2.49 8.63L2.49 8.63L2.49 8.63Q2.52 8.72 2.57 8.85L2.57 8.85L2.57 8.85Q2.62 8.97 2.67 9.12L2.67 9.12L2.67 9.12Q2.73 9.27 2.79 9.39L2.79 9.39L2.79 9.39Q3.23 9.34 3.72 9.35L3.72 9.35L3.72 9.35Q4.20 9.35 4.61 9.32L4.61 9.32L4.61 9.32Q4.68 9.02 4.73 8.71L4.73 8.71L4.73 8.71Q4.77 8.41 4.79 8.11L4.79 8.11L4.79 8.11Q4.76 7.88 4.75 7.67L4.75 7.67L4.75 7.67Q4.73 7.45 4.70 7.25L4.70 7.25L4.70 7.25Q4.68 7.13 4.63 6.99L4.63 6.99L4.63 6.99Q4.59 6.86 4.52 6.72L4.52 6.72ZM9.81 9.07L9.81 9.07L9.81 9.07Q10.14 9.14 10.46 9.13L10.46 9.13L10.46 9.13Q10.79 9.11 11.12 9.07L11.12 9.07L11.12 9.07Q11.83 8.90 12.50 8.51L12.50 8.51L12.50 8.51Q12.54 8.48 12.59 8.45L12.59 8.45L12.59 8.45Q12.64 8.41 12.70 8.39L12.70 8.39L12.70 8.39Q12.75 8.33 12.77 8.31L12.77 8.31L12.77 8.31Q12.78 8.29 12.80 8.27L12.80 8.27L12.80 8.27Q12.81 8.26 12.84 8.23L12.84 8.23L12.84 8.23Q12.87 8.20 12.92 8.15L12.92 8.15L12.92 8.15Q12.96 8.11 13.10 8.00L13.10 8.00L13.10 8.00Q13.23 7.90 13.36 7.83L13.36 7.83L13.41 7.77L13.44 7.80L13.44 7.80Q13.57 7.78 13.52 7.98L13.52 7.98L13.52 7.98Q13.36 8.44 13.01 8.81L13.01 8.81L13.01 8.81Q12.67 9.17 12.21 9.44L12.21 9.44L12.21 9.44Q11.90 9.70 11.55 9.96L11.55 9.96L11.55 9.96Q11.20 10.22 10.86 10.40L10.86 10.40L10.86 10.40Q10.51 10.58 10.20 10.68L10.20 10.68L10.20 10.68Q9.88 10.77 9.63 10.72L9.63 10.72L9.63 10.72Q9.23 10.64 8.88 10.46L8.88 10.46L8.88 10.46Q8.53 10.28 8.20 10.04L8.20 10.04L8.20 10.04Q7.50 9.51 7.12 9.01L7.12 9.01L7.12 9.01Q6.73 8.51 6.67 8.01L6.67 8.01L6.67 8.01Q6.61 7.50 6.87 6.96L6.87 6.96L6.87 6.96Q7.13 6.43 7.73 5.82L7.73 5.82L7.73 5.82Q8.15 5.25 8.75 4.88L8.75 4.88L8.75 4.88Q9.35 4.51 10.23 4.23L10.23 4.23L10.23 4.23Q10.42 4.17 10.65 4.14L10.65 4.14L10.65 4.14Q10.89 4.12 11.14 4.13L11.14 4.13L11.14 4.13Q11.35 4.07 11.62 4.06L11.62 4.06L11.62 4.06Q11.89 4.05 12.14 4.09L12.14 4.09L12.14 4.09Q12.21 3.98 12.35 3.81L12.35 3.81L12.35 3.81Q12.49 3.65 12.62 3.53L12.62 3.53L12.62 3.53Q12.75 3.40 12.87 3.36L12.87 3.36L12.87 3.36Q12.99 3.32 13.02 3.46L13.02 3.46L13.02 3.46Q13.05 3.72 13.03 3.99L13.03 3.99L13.03 3.99Q13.02 4.26 12.96 4.52L12.96 4.52L12.96 4.52Q12.99 4.59 13.02 4.65L13.02 4.65L13.02 4.65Q13.05 4.70 13.06 4.77L13.06 4.77L13.06 4.77Q12.99 5.04 12.80 5.24L12.80 5.24L12.80 5.24Q12.77 5.46 12.73 5.67L12.73 5.67L12.73 5.67Q12.68 5.88 12.59 6.09L12.59 6.09L12.50 6.22L12.50 6.24L12.50 6.24Q12.57 6.36 12.66 6.41L12.66 6.41L12.66 6.41Q12.74 6.47 12.82 6.55L12.82 6.55L12.82 6.55Q12.59 6.78 12.37 6.99L12.37 6.99L12.37 6.99Q12.15 7.20 11.91 7.42L11.91 7.42L11.91 7.42Q11.83 7.34 11.73 7.27L11.73 7.27L11.73 7.27Q11.62 7.21 11.59 7.10L11.59 7.10L11.59 7.10Q11.55 6.99 11.66 6.55L11.66 6.55L11.66 6.55Q11.65 6.41 11.67 6.23L11.67 6.23L11.67 6.23Q11.69 6.05 11.72 5.85L11.72 5.85L11.72 5.85Q11.69 5.77 11.67 5.68L11.67 5.68L11.67 5.68Q11.65 5.60 11.59 5.53L11.59 5.53L11.59 5.53Q11.56 5.50 11.54 5.49L11.54 5.49L11.54 5.49Q11.52 5.47 11.49 5.45L11.49 5.45L11.49 5.45Q11.33 5.38 11.17 5.30L11.17 5.30L11.17 5.30Q11.02 5.22 10.86 5.19L10.86 5.19L10.86 5.19Q10.60 5.14 10.25 5.14L10.25 5.14L10.25 5.14Q9.87 5.33 9.52 5.58L9.52 5.58L9.52 5.58Q9.17 5.82 8.88 6.10L8.88 6.10L8.88 6.10Q8.36 6.57 8.16 6.86L8.16 6.86L8.16 6.86Q7.95 7.15 8.06 7.48L8.06 7.48L8.06 7.48Q8.18 7.62 8.32 7.77L8.32 7.77L8.32 7.77Q8.46 7.92 8.64 8.13L8.64 8.13L8.64 8.13Q8.71 8.22 8.77 8.32L8.77 8.32L8.77 8.32Q8.83 8.41 8.92 8.53L8.92 8.53L8.92 8.53Q9.07 8.68 9.32 8.83L9.32 8.83L9.32 8.83Q9.44 8.92 9.56 8.97L9.56 8.97L9.56 8.97Q9.69 9.03 9.81 9.07ZM14.29 7.81L14.29 7.81L14.29 7.81Q14.22 7.25 14.27 6.72L14.27 6.72L14.22 6.76L14.22 6.76Q14.22 6.52 14.23 6.32L14.23 6.32L14.23 6.32Q14.24 6.12 14.28 5.94L14.28 5.94L14.28 5.94Q14.32 5.77 14.42 5.61L14.42 5.61L14.42 5.61Q14.52 5.45 14.71 5.28L14.71 5.28L14.71 5.28Q14.78 5.22 14.88 5.15L14.88 5.15L14.88 5.15Q14.97 5.08 15.08 5.04L15.08 5.04L15.40 4.73L15.40 4.73Q15.43 4.82 15.45 4.91L15.45 4.91L15.45 4.91Q15.47 5.00 15.48 5.08L15.48 5.08L15.48 5.08Q15.62 4.97 15.74 4.93L15.74 4.93L15.74 4.93Q15.85 4.90 15.88 5.03L15.88 5.03L15.88 5.03Q15.86 5.14 15.86 5.24L15.86 5.24L15.86 5.24Q15.85 5.35 15.85 5.46L15.85 5.46L15.85 5.46Q15.83 6.02 15.83 6.58L15.83 6.58L15.83 6.58Q15.82 7.14 15.83 7.70L15.83 7.70L15.83 7.70Q15.88 8.25 15.95 8.79L15.95 8.79L15.95 8.79Q16.03 9.34 16.16 9.91L16.16 9.91L16.16 9.91Q16.17 9.91 16.20 9.88L16.20 9.88L16.20 9.88Q16.20 9.91 16.19 9.95L16.19 9.95L16.19 9.95Q16.18 9.98 16.18 10.01L16.18 10.01L16.18 10.01Q16.16 10.09 16.05 10.25L16.05 10.25L16.05 10.25Q15.95 10.40 15.81 10.55L15.81 10.55L15.81 10.55Q15.67 10.70 15.53 10.79L15.53 10.79L15.53 10.79Q15.39 10.88 15.29 10.84L15.29 10.84L15.29 10.84Q15.18 10.93 15.06 10.98L15.06 10.98L15.06 10.98Q14.95 11.02 14.88 10.95L14.88 10.95L14.88 10.95Q14.87 10.91 14.86 10.87L14.86 10.87L14.86 10.87Q14.85 10.84 14.84 10.79L14.84 10.79L14.84 10.79Q14.63 10.93 14.53 10.84L14.53 10.84L14.53 10.84Q14.52 10.77 14.52 10.68L14.52 10.68L14.52 10.68Q14.52 10.61 14.50 10.53L14.50 10.53L14.50 10.53Q14.46 10.43 14.43 10.25L14.43 10.25L14.43 10.25Q14.39 10.07 14.38 9.86L14.38 9.86L14.38 9.86Q14.36 9.66 14.35 9.48L14.35 9.48L14.35 9.48Q14.34 9.30 14.34 9.21L14.34 9.21L14.34 9.21Q14.32 9.02 14.32 8.83L14.32 8.83L14.32 8.83Q14.32 8.65 14.32 8.46L14.32 8.46L14.32 8.46Q14.31 8.30 14.30 8.13L14.30 8.13L14.30 8.13Q14.29 7.97 14.29 7.81ZM14.60 2.88L14.67 2.83L14.67 2.83Q14.69 2.80 14.69 2.77L14.69 2.77L14.69 2.77Q14.69 2.73 14.70 2.70L14.70 2.70L14.70 2.70Q14.81 2.45 15.04 2.21L15.04 2.21L15.04 2.21Q15.26 1.97 15.54 1.90L15.54 1.90L15.57 1.90L15.57 1.90Q15.64 1.92 15.65 1.99L15.65 1.99L15.65 2.17L15.65 2.17Q15.76 2.09 15.84 2.07L15.84 2.07L15.84 2.07Q15.92 2.06 15.95 2.17L15.95 2.17L15.95 2.17Q15.97 2.39 15.97 2.59L15.97 2.59L15.97 2.59Q15.97 2.79 16.04 2.80L16.04 2.80L15.81 3.08L15.81 3.08Q15.78 3.28 15.72 3.46L15.72 3.46L15.72 3.46Q15.67 3.65 15.55 3.81L15.55 3.81L15.55 3.81Q15.53 3.85 15.48 3.91L15.48 3.91L15.48 3.91Q15.44 3.98 15.37 4.05L15.37 4.05L15.37 4.05Q15.36 4.06 15.36 4.07L15.36 4.07L15.36 4.09L15.34 4.10L15.34 4.10Q15.34 4.12 15.33 4.12L15.33 4.12L15.33 4.12Q15.33 4.12 15.33 4.13L15.33 4.13L15.33 4.13Q15.29 4.19 15.18 4.33L15.18 4.33L15.18 4.33Q15.06 4.48 14.93 4.62L14.93 4.62L14.93 4.62Q14.80 4.76 14.66 4.83L14.66 4.83L14.66 4.83Q14.52 4.90 14.43 4.82L14.43 4.82L14.43 4.82Q14.42 4.34 14.42 3.84L14.42 3.84L14.42 3.84Q14.42 3.33 14.60 2.88L14.60 2.88ZM21.03 8.79L21.29 8.61L21.29 8.61Q21.28 8.60 21.19 8.48L21.19 8.48L21.19 8.48Q21.10 8.36 21.10 8.34L21.10 8.34L21.10 8.34Q20.79 8.27 20.47 8.21L20.47 8.21L20.47 8.21Q20.15 8.15 19.88 8.09L19.88 8.09L19.88 8.09Q19.61 8.02 19.44 7.98L19.44 7.98L19.44 7.98Q19.26 7.94 19.24 7.92L19.24 7.92L19.24 7.92Q19.17 7.87 19.19 7.78L19.19 7.78L19.19 7.78Q19.21 7.70 19.28 7.60L19.28 7.60L19.28 7.60Q19.08 7.59 18.89 7.57L18.89 7.57L18.89 7.57Q18.69 7.56 18.49 7.53L18.49 7.53L18.48 7.56L18.48 7.56Q18.42 7.55 18.38 7.54L18.38 7.54L18.38 7.54Q18.34 7.53 18.28 7.52L18.28 7.52L18.28 7.52Q18.13 7.50 17.98 7.49L17.98 7.49L17.98 7.49Q17.84 7.48 17.68 7.45L17.68 7.45L17.68 7.45Q17.60 7.38 17.65 7.25L17.65 7.25L17.65 7.25Q17.71 7.13 17.84 7L17.84 7L17.84 7Q17.74 6.99 17.65 6.98L17.65 6.98L17.65 6.98Q17.57 6.97 17.49 6.99L17.49 6.99L17.49 6.99Q17.30 7.03 17.08 7.03L17.08 7.03L17.08 7.03Q17.05 7.03 17.02 7.01L17.02 7.01L17.02 7.01Q16.98 6.99 17.00 7L17.00 7L17.00 7Q16.93 6.93 16.95 6.87L16.95 6.87L16.95 6.87Q16.98 6.80 17.01 6.73L17.01 6.73L17.01 6.73Q17.12 6.51 17.28 6.36L17.28 6.36L17.28 6.36Q17.43 6.22 17.63 6.10L17.63 6.10L17.63 6.10Q17.58 6.03 17.60 5.98L17.60 5.98L17.39 6.02L17.39 6.02Q17.23 6.05 17.25 5.96L17.25 5.96L17.25 5.96Q17.26 5.88 17.32 5.77L17.32 5.77L17.32 5.77Q17.61 5.26 18.14 4.96L18.14 4.96L18.14 4.96Q18.66 4.66 19.28 4.50L19.28 4.50L19.28 4.50Q19.91 4.34 20.54 4.30L20.54 4.30L20.54 4.30Q21.18 4.27 21.71 4.31L21.71 4.31L21.71 4.31Q21.91 4.33 22.08 4.40L22.08 4.40L22.08 4.40Q22.23 4.40 22.36 4.42L22.36 4.42L22.36 4.42Q22.50 4.44 22.60 4.49L22.60 4.49L22.60 4.49Q22.75 4.51 22.90 4.53L22.90 4.53L22.90 4.53Q23.04 4.55 23.16 4.62L23.16 4.62L23.16 4.62Q23.18 4.73 23.13 4.84L23.13 4.84L23.13 4.84Q23.07 4.94 22.99 5.04L22.99 5.04L22.99 5.04Q22.90 5.14 22.81 5.21L22.81 5.21L22.81 5.21Q22.72 5.29 22.65 5.36L22.65 5.36L22.65 5.36Q22.43 5.52 22.18 5.57L22.18 5.57L22.18 5.57Q21.94 5.63 21.69 5.64L21.69 5.64L21.52 5.80L21.52 5.80Q21.48 5.74 21.42 5.63L21.42 5.63L21.42 5.63Q21.18 5.61 20.95 5.59L20.95 5.59L20.95 5.59Q20.72 5.57 20.50 5.56L20.50 5.56L20.50 5.56Q20.19 5.61 19.91 5.68L19.91 5.68L19.91 5.68Q19.91 5.77 19.91 5.84L19.91 5.84L19.91 5.84Q19.92 5.92 19.94 6.01L19.94 6.01L19.94 6.01Q20.26 6.08 20.57 6.15L20.57 6.15L20.57 6.15Q20.87 6.23 21.14 6.29L21.14 6.29L21.14 6.29Q21.48 6.40 21.79 6.46L21.79 6.46L21.79 6.46Q22.11 6.52 22.37 6.59L22.37 6.59L22.37 6.59Q22.64 6.66 22.84 6.75L22.84 6.75L22.84 6.75Q23.04 6.85 23.17 7.01L23.17 7.01L23.17 7.01Q23.42 7.25 23.48 7.62L23.48 7.62L23.48 7.62Q23.55 7.98 23.44 8.32L23.44 8.32L23.44 8.32Q23.55 8.39 23.42 8.56L23.42 8.56L23.42 8.56Q23.30 8.74 23.10 8.89L23.10 8.89L23.10 8.89Q22.92 9.13 22.69 9.30L22.69 9.30L22.69 9.30Q22.46 9.46 22.18 9.59L22.18 9.59L22.18 9.59Q21.67 9.94 21.03 10.18L21.03 10.18L21.03 10.18Q20.54 10.40 20.03 10.56L20.03 10.56L20.03 10.56Q19.39 10.81 18.79 10.95L18.79 10.95L18.79 10.95Q18.19 11.09 17.82 10.93L17.82 10.93L17.82 10.93Q17.77 10.88 17.79 10.81L17.79 10.81L17.79 10.81Q17.84 10.64 17.89 10.56L17.89 10.56L17.89 10.56Q17.65 10.63 17.42 10.70L17.42 10.70L17.42 10.70Q17.18 10.78 17.01 10.81L17.01 10.81L17.01 10.81Q16.94 10.85 16.94 10.82L16.94 10.82L16.94 10.82Q16.90 10.84 16.86 10.84L16.86 10.84L16.86 10.84Q16.83 10.84 16.80 10.84L16.80 10.84L16.80 10.84Q16.74 10.78 16.76 10.70L16.76 10.70L16.76 10.70Q16.79 10.63 16.83 10.54L16.83 10.54L16.83 10.54Q16.88 10.46 16.95 10.39L16.95 10.39L16.95 10.39Q17.01 10.32 17.05 10.28L17.05 10.28L17.35 10.02L17.35 10.02Q17.22 9.94 17.32 9.72L17.32 9.72L17.32 9.72Q17.42 9.51 17.62 9.30L17.62 9.30L17.62 9.30Q17.82 9.10 18.08 8.98L18.08 8.98L18.08 8.98Q18.34 8.86 18.55 8.99L18.55 8.99L18.55 8.99Q18.49 9.04 18.44 9.09L18.44 9.09L18.44 9.09Q18.40 9.14 18.35 9.20L18.35 9.20L18.35 9.20Q18.47 9.24 18.61 9.24L18.61 9.24L18.61 9.24Q18.76 9.24 18.86 9.24L18.86 9.24L18.86 9.24Q19.11 9.25 19.37 9.25L19.37 9.25L19.37 9.25Q19.63 9.24 19.88 9.23L19.88 9.23L19.88 9.23Q20.02 9.16 20.16 9.16L20.16 9.16L20.16 9.16Q20.30 9.16 20.44 9.13L20.44 9.13L20.44 9.13Q20.58 9.11 20.73 9.04L20.73 9.04L20.73 9.04Q20.87 8.97 21.03 8.79L21.03 8.79Z"></path></g><defs data-v-fde0c5aa=""><!----></defs><g data-v-fde0c5aa="" id="bd497aba-32af-46f4-86d9-acd9284c88c9" stroke="none" fill="#E8EBE9" transform="matrix(3.0224793883630157,0,0,3.0224793883630157,40,101.64032978619176)"><path d="M9.663 12.988L12.675 16l-6.338 6.337 3.326 3.326L16 19.325l3.012 3.012-6.337 6.338L16 32l6.337-6.337 3.326-3.326L32 16l-3.325-3.325-6.338 6.337L19.325 16l6.338-6.337-3.326-3.326L16 12.675l-3.012-3.012 6.337-6.338L16 0 9.663 6.337 6.337 9.663 0 16l3.325 3.325z"></path></g><defs data-v-fde0c5aa=""><!----></defs><g data-v-fde0c5aa="" id="cf6d9394-aa93-4da1-bc4f-0640c768531b" fill="#000000" transform="matrix(0.4555922526839184,0,0,0.4555922526839184,148.8127118404306,169.63924126671748)"><path d="M1.99 12.43L1.99 12.43L1.99 12.43Q1.99 11.45 2.22 10.51L2.22 10.51L2.22 10.51Q2.45 9.56 2.87 8.71L2.87 8.71L2.87 8.71Q3.29 7.87 3.87 7.16L3.87 7.16L3.87 7.16Q4.45 6.45 5.15 5.94L5.15 5.94L5.15 5.94Q5.84 5.42 6.62 5.13L6.62 5.13L6.62 5.13Q7.41 4.84 8.23 4.84L8.23 4.84L8.23 4.84Q9.20 4.84 9.74 5.25L9.74 5.25L9.74 5.25Q10.28 5.66 10.28 6.38L10.28 6.38L10.28 6.38Q10.28 6.66 10.20 6.96L10.20 6.96L10.20 6.96Q10.12 7.25 9.97 7.54L9.97 7.54L9.97 7.54Q9.83 7.83 9.63 8.09L9.63 8.09L9.63 8.09Q9.44 8.36 9.20 8.55L9.20 8.55L9.20 8.55Q8.83 8.50 8.57 8.22L8.57 8.22L8.57 8.22Q8.30 7.95 8.23 7.59L8.23 7.59L8.23 7.59Q8.72 7.18 9.01 6.74L9.01 6.74L9.01 6.74Q9.30 6.30 9.30 5.94L9.30 5.94L9.30 5.94Q9.30 5.32 8.53 5.32L8.53 5.32L8.53 5.32Q8.20 5.32 7.86 5.45L7.86 5.45L7.86 5.45Q7.52 5.59 7.17 5.82L7.17 5.82L7.17 5.82Q6.82 6.06 6.49 6.40L6.49 6.40L6.49 6.40Q6.16 6.73 5.88 7.14L5.88 7.14L5.88 7.14Q3.93 9.94 3.93 12.87L3.93 12.87L3.93 12.87Q3.93 13.90 4.26 14.53L4.26 14.53L4.26 14.53Q4.58 15.16 5.11 15.27L5.11 15.27L5.11 15.27Q5.71 15.13 6.64 14.50L6.64 14.50L6.64 14.50Q7.56 13.87 8.65 12.87L8.65 12.87L8.65 12.87Q8.79 13.01 8.82 13.16L8.82 13.16L8.82 13.16Q8.41 13.69 7.98 14.18L7.98 14.18L7.98 14.18Q7.55 14.67 7.12 15.08L7.12 15.08L7.12 15.08Q6.69 15.48 6.28 15.79L6.28 15.79L6.28 15.79Q5.87 16.10 5.52 16.27L5.52 16.27L5.52 16.27Q3.78 16.24 2.88 15.27L2.88 15.27L2.88 15.27Q1.99 14.31 1.99 12.43ZM22.58 9.21L22.58 9.21L22.58 9.21Q23.04 9.21 23.30 9.46L23.30 9.46L23.30 9.46Q23.56 9.72 23.56 10.16L23.56 10.16L23.56 10.16Q23.56 10.28 23.54 10.39L23.54 10.39L23.54 10.39Q23.52 10.51 23.49 10.60L23.49 10.60L23.49 10.60Q23.31 10.57 23.09 10.55L23.09 10.55L23.09 10.55Q22.86 10.53 22.55 10.53L22.55 10.53L22.55 10.53Q21.95 10.53 21.34 10.63L21.34 10.63L21.34 10.63Q20.72 10.74 20.16 10.81L20.16 10.81L20.16 10.81Q19.84 11.55 19.57 12.24L19.57 12.24L19.57 12.24Q19.31 12.94 19.12 13.51L19.12 13.51L19.12 13.51Q18.93 14.08 18.82 14.50L18.82 14.50L18.82 14.50Q18.72 14.92 18.70 15.13L18.70 15.13L18.70 15.13Q19.84 14.90 20.99 14.73L20.99 14.73L20.99 14.73Q22.15 14.56 23.42 14.48L23.42 14.48L23.42 14.48Q23.58 14.71 23.68 14.99L23.68 14.99L23.68 14.99Q23.79 15.27 23.79 15.60L23.79 15.60L23.79 15.60Q23.79 15.68 23.79 15.78L23.79 15.78L23.79 15.78Q23.79 15.88 23.76 15.97L23.76 15.97L23.76 15.97Q23.37 15.96 22.93 15.95L22.93 15.95L22.93 15.95Q22.50 15.95 21.80 15.95L21.80 15.95L21.80 15.95Q21.34 15.95 20.92 15.97L20.92 15.97L20.92 15.97Q20.51 15.99 20.09 16.03L20.09 16.03L20.09 16.03Q19.67 16.07 19.20 16.14L19.20 16.14L19.20 16.14Q18.73 16.21 18.14 16.31L18.14 16.31L18.14 16.31Q17.50 16.06 16.90 15.08L16.90 15.08L16.90 15.08Q17.14 14.57 17.56 13.54L17.56 13.54L17.56 13.54Q17.99 12.52 18.65 10.79L18.65 10.79L18.65 10.79Q18.02 10.60 17.82 10.09L17.82 10.09L17.82 10.09Q17.89 10.02 18.23 9.92L18.23 9.92L18.23 9.92Q18.56 9.81 19.05 9.70L19.05 9.70L19.05 9.70Q19.26 9.16 19.41 8.75L19.41 8.75L19.41 8.75Q19.56 8.34 19.67 7.99L19.67 7.99L19.67 7.99Q19.78 7.63 19.87 7.29L19.87 7.29L19.87 7.29Q19.96 6.94 20.05 6.54L20.05 6.54L20.05 6.54Q19.56 6.51 19.28 6.27L19.28 6.27L19.28 6.27Q19.00 6.02 19.00 5.63L19.00 5.63L19.00 5.63Q19.00 5.52 19.03 5.36L19.03 5.36L19.03 5.36Q19.07 5.21 19.11 5.10L19.11 5.10L19.11 5.10Q19.39 5.14 19.65 5.15L19.65 5.15L19.65 5.15Q19.91 5.17 20.33 5.17L20.33 5.17L20.33 5.17Q21.21 5.17 21.98 5.12L21.98 5.12L21.98 5.12Q22.75 5.07 23.37 5.01L23.37 5.01L23.37 5.01Q24.00 4.96 24.44 4.91L24.44 4.91L24.44 4.91Q24.89 4.86 25.13 4.86L25.13 4.86L25.13 4.86Q25.45 4.86 25.70 5.19L25.70 5.19L25.70 5.19Q25.96 5.53 26.08 6.15L26.08 6.15L26.08 6.15Q25.65 6.10 25.38 6.09L25.38 6.09L25.38 6.09Q25.10 6.08 24.89 6.08L24.89 6.08L24.89 6.08Q24.12 6.08 23.48 6.15L23.48 6.15L23.48 6.15Q22.85 6.23 22.26 6.31L22.26 6.31L22.26 6.31Q22.18 6.44 22.07 6.64L22.07 6.64L22.07 6.64Q21.97 6.83 21.80 7.18L21.80 7.18L21.80 7.18Q21.63 7.53 21.38 8.06L21.38 8.06L21.38 8.06Q21.14 8.60 20.79 9.39L20.79 9.39L20.79 9.39Q21.32 9.31 21.79 9.26L21.79 9.26L21.79 9.26Q22.26 9.21 22.58 9.21ZM33.57 16.24L33.57 16.24L33.57 16.24Q32.77 16.00 32.49 15.79L32.49 15.79L32.49 15.79Q32.21 15.57 32.21 15.19L32.21 15.19L32.21 15.19Q32.21 14.77 32.41 14.01L32.41 14.01L32.41 14.01Q32.61 13.24 32.92 12.31L32.92 12.31L32.92 12.31Q33.24 11.37 33.64 10.35L33.64 10.35L33.64 10.35Q34.05 9.32 34.47 8.39L34.47 8.39L34.47 8.39Q34.89 7.45 35.29 6.67L35.29 6.67L35.29 6.67Q35.69 5.89 35.99 5.46L35.99 5.46L35.90 4.87L35.90 4.87Q36.09 4.87 36.44 4.97L36.44 4.97L36.44 4.97Q36.79 5.07 37.15 5.21L37.15 5.21L37.15 5.21Q37.51 5.35 37.78 5.49L37.78 5.49L37.78 5.49Q38.05 5.64 38.08 5.74L38.08 5.74L38.08 5.74Q38.01 6.08 37.97 6.76L37.97 6.76L37.97 6.76Q37.93 7.43 37.93 8.20L37.93 8.20L37.93 8.20Q37.93 9.73 38.05 11.19L38.05 11.19L38.05 11.19Q38.16 12.66 38.60 14.17L38.60 14.17L38.60 14.17Q38.82 13.05 39.08 11.94L39.08 11.94L39.08 11.94Q39.34 10.82 39.62 9.81L39.62 9.81L39.62 9.81Q39.90 8.79 40.18 7.92L40.18 7.92L40.18 7.92Q40.46 7.06 40.72 6.40L40.72 6.40L40.72 6.40Q40.98 5.75 41.20 5.38L41.20 5.38L41.20 5.38Q41.43 5.01 41.61 4.98L41.61 4.98L41.61 4.98Q41.76 5.01 41.94 5.10L41.94 5.10L41.94 5.10Q42.13 5.19 42.29 5.32L42.29 5.32L42.29 5.32Q42.46 5.45 42.60 5.60L42.60 5.60L42.60 5.60Q42.74 5.75 42.83 5.91L42.83 5.91L42.83 5.91Q42.38 6.09 41.94 6.76L41.94 6.76L41.94 6.76Q41.50 7.43 41.10 8.39L41.10 8.39L41.10 8.39Q40.70 9.35 40.35 10.47L40.35 10.47L40.35 10.47Q40.01 11.59 39.75 12.68L39.75 12.68L39.75 12.68Q39.49 13.76 39.35 14.69L39.35 14.69L39.35 14.69Q39.20 15.61 39.19 16.17L39.19 16.17L39.19 16.17Q39.19 16.20 39.20 16.21L39.20 16.21L39.20 16.21Q39.16 16.23 39.11 16.23L39.11 16.23L39.11 16.23Q39.06 16.23 39.02 16.23L39.02 16.23L39.02 16.23Q38.37 16.23 37.88 16.07L37.88 16.07L37.88 16.07Q37.38 15.90 37.23 15.61L37.23 15.61L37.23 15.61Q36.93 14.43 36.74 13.34L36.74 13.34L36.74 13.34Q36.54 12.25 36.41 11.16L36.41 11.16L36.41 11.16Q36.27 10.07 36.20 8.95L36.20 8.95L36.20 8.95Q36.12 7.84 36.08 6.62L36.08 6.62L36.08 6.62Q35.81 7.04 35.52 7.72L35.52 7.72L35.52 7.72Q35.22 8.40 34.94 9.21L34.94 9.21L34.94 9.21Q34.66 10.02 34.41 10.92L34.41 10.92L34.41 10.92Q34.15 11.82 33.95 12.67L33.95 12.67L33.95 12.67Q33.75 13.52 33.64 14.29L33.64 14.29L33.64 14.29Q33.53 15.05 33.53 15.61L33.53 15.61L33.53 15.61Q33.53 15.90 33.54 16.03L33.54 16.03L33.54 16.03Q33.54 16.16 33.57 16.24ZM51.66 6.69L51.66 6.69L51.66 6.69Q51.10 6.69 50.80 6.38L50.80 6.38L50.80 6.38Q50.50 6.06 50.50 5.61L50.50 5.61L50.50 5.61Q50.50 5.50 50.53 5.35L50.53 5.35L50.53 5.35Q50.57 5.19 50.62 5.08L50.62 5.08L50.62 5.08Q50.81 5.17 51.16 5.20L51.16 5.20L51.16 5.20Q51.52 5.24 52.00 5.24L52.00 5.24L52.00 5.24Q52.71 5.24 53.61 5.17L53.61 5.17L53.61 5.17Q54.52 5.11 55.34 5.04L55.34 5.04L55.34 5.04Q56.17 4.97 56.80 4.91L56.80 4.91L56.80 4.91Q57.43 4.84 57.61 4.84L57.61 4.84L57.61 4.84Q58.13 4.84 58.36 5.23L58.36 5.23L58.36 5.23Q58.59 5.61 58.70 6.26L58.70 6.26L58.70 6.26Q58.34 6.23 57.98 6.21L57.98 6.21L57.98 6.21Q57.62 6.19 57.37 6.19L57.37 6.19L57.37 6.19Q56.92 6.19 56.47 6.22L56.47 6.22L56.47 6.22Q56.01 6.24 55.55 6.30L55.55 6.30L55.55 6.30Q55.36 6.71 55.12 7.26L55.12 7.26L55.12 7.26Q54.88 7.81 54.65 8.41L54.65 8.41L54.65 8.41Q54.42 9.02 54.21 9.61L54.21 9.61L54.21 9.61Q54.00 10.21 53.84 10.68L53.84 10.68L53.84 10.68Q53.54 11.61 53.30 12.39L53.30 12.39L53.30 12.39Q53.07 13.17 52.90 13.85L52.90 13.85L52.90 13.85Q52.72 14.53 52.60 15.15L52.60 15.15L52.60 15.15Q52.47 15.76 52.37 16.35L52.37 16.35L52.37 16.35Q51.44 16.21 50.81 15.18L50.81 15.18L50.81 15.18Q50.92 14.74 51.08 14.23L51.08 14.23L51.08 14.23Q51.24 13.72 51.46 13.07L51.46 13.07L51.46 13.07Q51.67 12.42 51.97 11.59L51.97 11.59L51.97 11.59Q52.26 10.77 52.64 9.72L52.64 9.72L52.64 9.72Q52.78 9.32 52.93 8.90L52.93 8.90L52.93 8.90Q53.09 8.47 53.23 8.05L53.23 8.05L53.23 8.05Q53.38 7.63 53.50 7.24L53.50 7.24L53.50 7.24Q53.62 6.85 53.70 6.52L53.70 6.52L53.70 6.52Q53.12 6.59 52.59 6.64L52.59 6.64L52.59 6.64Q52.07 6.69 51.66 6.69ZM73.64 7.46L73.64 7.46L73.64 7.46Q73.64 8.13 73.34 8.73L73.34 8.73L73.34 8.73Q73.04 9.32 72.51 9.79L72.51 9.79L72.51 9.79Q71.97 10.26 71.26 10.58L71.26 10.58L71.26 10.58Q70.55 10.91 69.71 11.02L69.71 11.02L69.71 11.02Q69.92 11.65 70.22 12.31L70.22 12.31L70.22 12.31Q70.52 12.98 70.87 13.59L70.87 13.59L70.87 13.59Q71.22 14.21 71.60 14.73L71.60 14.73L71.60 14.73Q71.97 15.25 72.34 15.58L72.34 15.58L72.34 15.58Q72.27 15.72 72.13 15.86L72.13 15.86L72.13 15.86Q72.00 16.00 71.83 16.12L71.83 16.12L71.83 16.12Q71.65 16.24 71.46 16.32L71.46 16.32L71.46 16.32Q71.27 16.39 71.11 16.39L71.11 16.39L71.11 16.39Q70.80 16.39 70.52 16.10L70.52 16.10L70.52 16.10Q70.24 15.81 69.95 15.17L69.95 15.17L69.95 15.17Q69.66 14.53 69.35 13.52L69.35 13.52L69.35 13.52Q69.03 12.50 68.66 11.07L68.66 11.07L68.66 11.07Q68.50 11.07 68.35 11.07L68.35 11.07L68.35 11.07Q68.19 11.07 68.11 11.05L68.11 11.05L68.11 11.05Q68.01 10.99 67.90 10.85L67.90 10.85L67.90 10.85Q67.52 11.66 67.23 12.38L67.23 12.38L67.23 12.38Q66.93 13.09 66.70 13.76L66.70 13.76L66.70 13.76Q66.47 14.42 66.30 15.04L66.30 15.04L66.30 15.04Q66.12 15.67 66.00 16.31L66.00 16.31L66.00 16.31Q65.52 16.20 65.17 15.90L65.17 15.90L65.17 15.90Q64.82 15.61 64.51 15.08L64.51 15.08L64.51 15.08Q64.57 14.95 64.63 14.83L64.63 14.83L64.63 14.83Q64.69 14.71 64.79 14.50L64.79 14.50L64.79 14.50Q64.89 14.28 65.04 13.94L65.04 13.94L65.04 13.94Q65.18 13.61 65.43 13.05L65.43 13.05L65.43 13.05Q65.67 12.49 66.02 11.68L66.02 11.68L66.02 11.68Q66.36 10.86 66.85 9.70L66.85 9.70L66.85 9.70Q67.07 9.18 67.23 8.79L67.23 8.79L67.23 8.79Q67.40 8.40 67.52 8.04L67.52 8.04L67.52 8.04Q67.65 7.69 67.75 7.33L67.75 7.33L67.75 7.33Q67.86 6.97 67.97 6.51L67.97 6.51L67.97 6.51Q67.33 6.73 66.77 7.01L66.77 7.01L66.77 7.01Q66.22 7.28 65.86 7.59L65.86 7.59L65.86 7.59Q65.73 7.50 65.60 7.34L65.60 7.34L65.60 7.34Q65.46 7.17 65.35 6.96L65.35 6.96L65.35 6.96Q65.24 6.76 65.16 6.55L65.16 6.55L65.16 6.55Q65.07 6.34 65.06 6.17L65.06 6.17L65.06 6.17Q65.48 5.89 66.09 5.66L66.09 5.66L66.09 5.66Q66.70 5.42 67.38 5.24L67.38 5.24L67.38 5.24Q68.07 5.07 68.78 4.97L68.78 4.97L68.78 4.97Q69.50 4.87 70.11 4.87L70.11 4.87L70.11 4.87Q71.79 4.87 72.72 5.56L72.72 5.56L72.72 5.56Q73.64 6.26 73.64 7.46ZM70.06 6.02L70.22 6.29L70.22 6.29Q70.13 6.41 69.92 6.79L69.92 6.79L69.92 6.79Q69.71 7.17 69.43 7.69L69.43 7.69L69.43 7.69Q69.16 8.22 68.86 8.83L68.86 8.83L68.86 8.83Q68.56 9.45 68.28 10.05L68.28 10.05L68.28 10.05Q69.33 10.05 70.21 9.86L70.21 9.86L70.21 9.86Q71.09 9.66 71.74 9.30L71.74 9.30L71.74 9.30Q72.38 8.95 72.74 8.46L72.74 8.46L72.74 8.46Q73.09 7.98 73.09 7.39L73.09 7.39L73.09 7.39Q73.09 6.69 72.59 6.32L72.59 6.32L72.59 6.32Q72.09 5.95 71.04 5.95L71.04 5.95L71.04 5.95Q70.80 5.95 70.56 5.97L70.56 5.97L70.56 5.97Q70.32 5.99 70.06 6.02L70.06 6.02ZM81.42 16.24L81.42 16.24L81.42 16.24Q80.75 16.04 80.49 15.85L80.49 15.85L80.49 15.85Q80.23 15.65 80.23 15.36L80.23 15.36L80.23 15.36Q80.23 15.13 80.36 14.73L80.36 14.73L80.36 14.73Q80.49 14.32 80.73 13.77L80.73 13.77L80.73 13.77Q80.98 13.22 81.32 12.54L81.32 12.54L81.32 12.54Q81.66 11.87 82.10 11.10L82.10 11.10L82.10 11.10Q81.73 11.09 81.44 11.08L81.44 11.08L81.44 11.08Q81.16 11.07 80.98 11.07L80.98 11.07L80.98 11.07Q81.06 10.86 81.45 10.71L81.45 10.71L81.45 10.71Q81.84 10.56 82.49 10.44L82.49 10.44L82.49 10.44Q83.03 9.53 83.66 8.71L83.66 8.71L83.66 8.71Q84.28 7.88 84.91 7.19L84.91 7.19L84.91 7.19Q85.54 6.50 86.17 5.97L86.17 5.97L86.17 5.97Q86.80 5.45 87.37 5.14L87.37 5.14L87.37 5.14Q87.39 5.04 87.39 4.97L87.39 4.97L87.39 4.97Q87.40 4.90 87.40 4.87L87.40 4.87L87.40 4.87Q87.60 4.87 87.93 4.97L87.93 4.97L87.93 4.97Q88.26 5.07 88.57 5.21L88.57 5.21L88.57 5.21Q88.89 5.35 89.13 5.49L89.13 5.49L89.13 5.49Q89.38 5.64 89.40 5.74L89.40 5.74L89.40 5.74Q88.94 6.55 88.49 8.17L88.49 8.17L88.49 8.17Q88.05 9.79 87.75 12.04L87.75 12.04L87.75 12.04Q87.68 12.60 87.63 13.31L87.63 13.31L87.63 13.31Q87.58 14.03 87.58 14.91L87.58 14.91L87.58 14.91Q87.58 15.22 87.58 15.54L87.58 15.54L87.58 15.54Q87.58 15.86 87.61 16.21L87.61 16.21L87.61 16.21Q87.58 16.23 87.56 16.23L87.56 16.23L87.56 16.23Q87.53 16.23 87.44 16.23L87.44 16.23L87.44 16.23Q87.25 16.23 86.99 16.16L86.99 16.16L86.99 16.16Q86.73 16.10 86.48 16.01L86.48 16.01L86.48 16.01Q86.24 15.92 86.06 15.81L86.06 15.81L86.06 15.81Q85.89 15.69 85.85 15.61L85.85 15.61L85.85 15.61Q85.83 15.43 85.83 15.25L85.83 15.25L85.83 15.25Q85.83 15.08 85.83 14.88L85.83 14.88L85.83 14.88Q85.83 14.01 85.90 13.12L85.90 13.12L85.90 13.12Q85.96 12.22 86.11 11.27L86.11 11.27L86.11 11.27Q85.92 11.26 85.60 11.23L85.60 11.23L85.60 11.23Q85.27 11.21 84.88 11.20L84.88 11.20L84.88 11.20Q84.48 11.19 84.02 11.16L84.02 11.16L84.02 11.16Q83.57 11.14 83.13 11.13L83.13 11.13L83.13 11.13Q82.80 11.76 82.50 12.38L82.50 12.38L82.50 12.38Q82.21 13.01 82.00 13.64L82.00 13.64L82.00 13.64Q81.76 14.31 81.61 14.98L81.61 14.98L81.61 14.98Q81.47 15.65 81.42 16.24ZM86.83 7.83L86.83 7.83L86.83 7.83Q86.88 7.63 86.96 7.29L86.96 7.29L86.96 7.29Q87.04 6.94 87.11 6.57L87.11 6.57L87.11 6.57Q86.76 6.69 86.33 7.03L86.33 7.03L86.33 7.03Q85.90 7.36 85.45 7.86L85.45 7.86L85.45 7.86Q84.99 8.36 84.52 8.98L84.52 8.98L84.52 8.98Q84.06 9.60 83.62 10.30L83.62 10.30L83.62 10.30Q84.80 10.21 86.30 10.18L86.30 10.18L86.30 10.18Q86.41 9.59 86.54 9.01L86.54 9.01L86.54 9.01Q86.67 8.43 86.83 7.83ZM101.99 14.38L101.99 14.38L101.99 14.38Q102.34 14.98 102.34 15.54L102.34 15.54L102.34 15.54Q102.34 15.67 102.32 15.77L102.32 15.77L102.32 15.77Q102.30 15.88 102.27 15.99L102.27 15.99L102.27 15.99Q102.03 15.96 101.77 15.95L101.77 15.95L101.77 15.95Q101.51 15.93 101.23 15.93L101.23 15.93L101.23 15.93Q100.90 15.93 100.55 15.95L100.55 15.95L100.55 15.95Q100.21 15.97 99.79 16.02L99.79 16.02L99.79 16.02Q99.37 16.06 98.85 16.13L98.85 16.13L98.85 16.13Q98.34 16.20 97.65 16.31L97.65 16.31L97.65 16.31Q97.33 16.20 97.01 15.87L97.01 15.87L97.01 15.87Q96.68 15.54 96.40 15.08L96.40 15.08L96.40 15.08Q96.54 14.77 96.75 14.31L96.75 14.31L96.75 14.31Q96.96 13.86 97.24 13.21L97.24 13.21L97.24 13.21Q97.52 12.56 97.87 11.68L97.87 11.68L97.87 11.68Q98.21 10.81 98.60 9.66L98.60 9.66L98.60 9.66Q98.85 8.90 99.04 8.33L99.04 8.33L99.04 8.33Q99.22 7.76 99.36 7.22L99.36 7.22L99.36 7.22Q99.51 6.68 99.65 6.09L99.65 6.09L99.65 6.09Q99.79 5.50 99.96 4.73L99.96 4.73L99.96 4.73Q100.52 4.84 100.93 5.14L100.93 5.14L100.93 5.14Q101.35 5.45 101.72 6.01L101.72 6.01L101.72 6.01Q101.61 6.19 101.43 6.59L101.43 6.59L101.43 6.59Q101.25 7 101.00 7.58L101.00 7.58L101.00 7.58Q100.76 8.16 100.46 8.90L100.46 8.90L100.46 8.90Q100.17 9.63 99.85 10.47L99.85 10.47L99.85 10.47Q99.54 11.30 99.25 12.03L99.25 12.03L99.25 12.03Q98.95 12.75 98.72 13.34L98.72 13.34L98.72 13.34Q98.49 13.93 98.35 14.35L98.35 14.35L98.35 14.35Q98.21 14.77 98.21 14.98L98.21 14.98L98.21 14.98Q98.43 14.97 98.62 14.95L98.62 14.95L98.62 14.95Q98.80 14.94 98.99 14.90L98.99 14.90L98.99 14.90Q99.19 14.87 99.42 14.82L99.42 14.82L99.42 14.82Q99.65 14.77 99.97 14.69L99.97 14.69L99.97 14.69Q100.25 14.62 100.49 14.57L100.49 14.57L100.49 14.57Q100.73 14.52 100.96 14.48L100.96 14.48L100.96 14.48Q101.19 14.45 101.44 14.43L101.44 14.43L101.44 14.43Q101.68 14.41 101.99 14.38ZM122.05 14.45L122.05 14.45L122.05 14.45Q122.26 13.99 122.56 13.26L122.56 13.26L122.56 13.26Q122.85 12.53 123.17 11.68L123.17 11.68L123.17 11.68Q123.49 10.84 123.83 9.95L123.83 9.95L123.83 9.95Q124.17 9.06 124.46 8.26L124.46 8.26L124.46 8.26Q124.75 7.46 124.97 6.83L124.97 6.83L124.97 6.83Q125.19 6.20 125.29 5.87L125.29 5.87L125.29 5.87Q124.40 6.23 123.77 6.97L123.77 6.97L123.77 6.97Q123.14 7.71 122.82 8.83L122.82 8.83L122.82 8.83Q122.50 8.72 122.23 8.43L122.23 8.43L122.23 8.43Q121.97 8.15 121.88 7.71L121.88 7.71L121.88 7.71Q122.02 7.07 122.41 6.54L122.41 6.54L122.41 6.54Q122.79 6.01 123.38 5.63L123.38 5.63L123.38 5.63Q123.97 5.25 124.74 5.05L124.74 5.05L124.74 5.05Q125.51 4.84 126.39 4.84L126.39 4.84L126.39 4.84Q127.51 4.84 128.45 5.17L128.45 5.17L128.45 5.17Q129.39 5.50 130.06 6.09L130.06 6.09L130.06 6.09Q130.73 6.68 131.11 7.50L131.11 7.50L131.11 7.50Q131.49 8.33 131.49 9.34L131.49 9.34L131.49 9.34Q131.49 10.71 130.98 11.96L130.98 11.96L130.98 11.96Q130.48 13.20 129.62 14.15L129.62 14.15L129.62 14.15Q128.76 15.11 127.62 15.67L127.62 15.67L127.62 15.67Q126.49 16.24 125.24 16.24L125.24 16.24L125.24 16.24Q124.10 16.24 123.28 15.79L123.28 15.79L123.28 15.79Q122.46 15.33 122.05 14.45ZM126.99 5.54L126.99 5.54L126.99 5.54Q126.29 5.54 125.66 5.74L125.66 5.74L125.66 5.74Q126.28 5.96 126.69 6.21L126.69 6.21L126.69 6.21Q127.09 6.45 127.25 6.59L127.25 6.59L127.25 6.59Q127.13 6.75 126.92 7.14L126.92 7.14L126.92 7.14Q126.70 7.53 126.41 8.09L126.41 8.09L126.41 8.09Q126.13 8.65 125.80 9.32L125.80 9.32L125.80 9.32Q125.48 9.98 125.17 10.68L125.17 10.68L125.17 10.68Q124.38 12.46 124.02 13.48L124.02 13.48L124.02 13.48Q123.66 14.50 123.66 14.90L123.66 14.90L123.66 14.90Q123.86 14.97 124.14 14.99L124.14 14.99L124.14 14.99Q124.42 15.02 124.74 15.02L124.74 15.02L124.74 15.02Q125.87 15.02 126.89 14.50L126.89 14.50L126.89 14.50Q127.90 13.97 128.67 13.09L128.67 13.09L128.67 13.09Q129.43 12.21 129.87 11.04L129.87 11.04L129.87 11.04Q130.31 9.87 130.31 8.58L130.31 8.58L130.31 8.58Q130.31 7.14 129.42 6.34L129.42 6.34L129.42 6.34Q128.52 5.54 126.99 5.54ZM139.64 16.24L139.64 16.24L139.64 16.24Q138.96 16.04 138.70 15.85L138.70 15.85L138.70 15.85Q138.45 15.65 138.45 15.36L138.45 15.36L138.45 15.36Q138.45 15.13 138.57 14.73L138.57 14.73L138.57 14.73Q138.70 14.32 138.94 13.77L138.94 13.77L138.94 13.77Q139.19 13.22 139.53 12.54L139.53 12.54L139.53 12.54Q139.87 11.87 140.31 11.10L140.31 11.10L140.31 11.10Q139.94 11.09 139.66 11.08L139.66 11.08L139.66 11.08Q139.37 11.07 139.19 11.07L139.19 11.07L139.19 11.07Q139.27 10.86 139.66 10.71L139.66 10.71L139.66 10.71Q140.06 10.56 140.70 10.44L140.70 10.44L140.70 10.44Q141.25 9.53 141.87 8.71L141.87 8.71L141.87 8.71Q142.49 7.88 143.12 7.19L143.12 7.19L143.12 7.19Q143.75 6.50 144.38 5.97L144.38 5.97L144.38 5.97Q145.01 5.45 145.59 5.14L145.59 5.14L145.59 5.14Q145.60 5.04 145.61 4.97L145.61 4.97L145.61 4.97Q145.61 4.90 145.61 4.87L145.61 4.87L145.61 4.87Q145.81 4.87 146.14 4.97L146.14 4.97L146.14 4.97Q146.47 5.07 146.78 5.21L146.78 5.21L146.78 5.21Q147.10 5.35 147.34 5.49L147.34 5.49L147.34 5.49Q147.59 5.64 147.62 5.74L147.62 5.74L147.62 5.74Q147.15 6.55 146.71 8.17L146.71 8.17L146.71 8.17Q146.26 9.79 145.96 12.04L145.96 12.04L145.96 12.04Q145.89 12.60 145.84 13.31L145.84 13.31L145.84 13.31Q145.80 14.03 145.80 14.91L145.80 14.91L145.80 14.91Q145.80 15.22 145.80 15.54L145.80 15.54L145.80 15.54Q145.80 15.86 145.82 16.21L145.82 16.21L145.82 16.21Q145.80 16.23 145.77 16.23L145.77 16.23L145.77 16.23Q145.74 16.23 145.66 16.23L145.66 16.23L145.66 16.23Q145.46 16.23 145.20 16.16L145.20 16.16L145.20 16.16Q144.94 16.10 144.70 16.01L144.70 16.01L144.70 16.01Q144.45 15.92 144.28 15.81L144.28 15.81L144.28 15.81Q144.10 15.69 144.06 15.61L144.06 15.61L144.06 15.61Q144.05 15.43 144.05 15.25L144.05 15.25L144.05 15.25Q144.05 15.08 144.05 14.88L144.05 14.88L144.05 14.88Q144.05 14.01 144.11 13.12L144.11 13.12L144.11 13.12Q144.17 12.22 144.33 11.27L144.33 11.27L144.33 11.27Q144.13 11.26 143.81 11.23L143.81 11.23L143.81 11.23Q143.49 11.21 143.09 11.20L143.09 11.20L143.09 11.20Q142.69 11.19 142.23 11.16L142.23 11.16L142.23 11.16Q141.78 11.14 141.34 11.13L141.34 11.13L141.34 11.13Q141.01 11.76 140.71 12.38L140.71 12.38L140.71 12.38Q140.42 13.01 140.21 13.64L140.21 13.64L140.21 13.64Q139.97 14.31 139.82 14.98L139.82 14.98L139.82 14.98Q139.68 15.65 139.64 16.24ZM145.04 7.83L145.04 7.83L145.04 7.83Q145.10 7.63 145.17 7.29L145.17 7.29L145.17 7.29Q145.25 6.94 145.32 6.57L145.32 6.57L145.32 6.57Q144.97 6.69 144.54 7.03L144.54 7.03L144.54 7.03Q144.12 7.36 143.66 7.86L143.66 7.86L143.66 7.86Q143.21 8.36 142.74 8.98L142.74 8.98L142.74 8.98Q142.27 9.60 141.83 10.30L141.83 10.30L141.83 10.30Q143.01 10.21 144.51 10.18L144.51 10.18L144.51 10.18Q144.62 9.59 144.75 9.01L144.75 9.01L144.75 9.01Q144.89 8.43 145.04 7.83ZM157.19 6.69L157.19 6.69L157.19 6.69Q156.63 6.69 156.33 6.38L156.33 6.38L156.33 6.38Q156.03 6.06 156.03 5.61L156.03 5.61L156.03 5.61Q156.03 5.50 156.06 5.35L156.06 5.35L156.06 5.35Q156.10 5.19 156.16 5.08L156.16 5.08L156.16 5.08Q156.34 5.17 156.69 5.20L156.69 5.20L156.69 5.20Q157.05 5.24 157.53 5.24L157.53 5.24L157.53 5.24Q158.24 5.24 159.14 5.17L159.14 5.17L159.14 5.17Q160.05 5.11 160.87 5.04L160.87 5.04L160.87 5.04Q161.70 4.97 162.33 4.91L162.33 4.91L162.33 4.91Q162.96 4.84 163.14 4.84L163.14 4.84L163.14 4.84Q163.66 4.84 163.89 5.23L163.89 5.23L163.89 5.23Q164.12 5.61 164.23 6.26L164.23 6.26L164.23 6.26Q163.87 6.23 163.51 6.21L163.51 6.21L163.51 6.21Q163.16 6.19 162.90 6.19L162.90 6.19L162.90 6.19Q162.46 6.19 162.00 6.22L162.00 6.22L162.00 6.22Q161.55 6.24 161.08 6.30L161.08 6.30L161.08 6.30Q160.89 6.71 160.65 7.26L160.65 7.26L160.65 7.26Q160.41 7.81 160.18 8.41L160.18 8.41L160.18 8.41Q159.95 9.02 159.74 9.61L159.74 9.61L159.74 9.61Q159.53 10.21 159.38 10.68L159.38 10.68L159.38 10.68Q159.07 11.61 158.84 12.39L158.84 12.39L158.84 12.39Q158.61 13.17 158.43 13.85L158.43 13.85L158.43 13.85Q158.26 14.53 158.13 15.15L158.13 15.15L158.13 15.15Q158.00 15.76 157.91 16.35L157.91 16.35L157.91 16.35Q156.97 16.21 156.34 15.18L156.34 15.18L156.34 15.18Q156.45 14.74 156.61 14.23L156.61 14.23L156.61 14.23Q156.77 13.72 156.99 13.07L156.99 13.07L156.99 13.07Q157.21 12.42 157.50 11.59L157.50 11.59L157.50 11.59Q157.79 10.77 158.17 9.72L158.17 9.72L158.17 9.72Q158.31 9.32 158.47 8.90L158.47 8.90L158.47 8.90Q158.62 8.47 158.77 8.05L158.77 8.05L158.77 8.05Q158.91 7.63 159.03 7.24L159.03 7.24L159.03 7.24Q159.15 6.85 159.24 6.52L159.24 6.52L159.24 6.52Q158.65 6.59 158.12 6.64L158.12 6.64L158.12 6.64Q157.60 6.69 157.19 6.69ZM169.62 16.24L169.62 16.24L169.62 16.24Q168.95 16.04 168.69 15.85L168.69 15.85L168.69 15.85Q168.43 15.65 168.43 15.36L168.43 15.36L168.43 15.36Q168.43 15.13 168.56 14.73L168.56 14.73L168.56 14.73Q168.69 14.32 168.93 13.77L168.93 13.77L168.93 13.77Q169.18 13.22 169.52 12.54L169.52 12.54L169.52 12.54Q169.86 11.87 170.30 11.10L170.30 11.10L170.30 11.10Q169.93 11.09 169.64 11.08L169.64 11.08L169.64 11.08Q169.36 11.07 169.18 11.07L169.18 11.07L169.18 11.07Q169.26 10.86 169.65 10.71L169.65 10.71L169.65 10.71Q170.04 10.56 170.69 10.44L170.69 10.44L170.69 10.44Q171.23 9.53 171.86 8.71L171.86 8.71L171.86 8.71Q172.48 7.88 173.11 7.19L173.11 7.19L173.11 7.19Q173.74 6.50 174.37 5.97L174.37 5.97L174.37 5.97Q175.00 5.45 175.57 5.14L175.57 5.14L175.57 5.14Q175.59 5.04 175.59 4.97L175.59 4.97L175.59 4.97Q175.60 4.90 175.60 4.87L175.60 4.87L175.60 4.87Q175.80 4.87 176.13 4.97L176.13 4.97L176.13 4.97Q176.46 5.07 176.77 5.21L176.77 5.21L176.77 5.21Q177.09 5.35 177.33 5.49L177.33 5.49L177.33 5.49Q177.58 5.64 177.60 5.74L177.60 5.74L177.60 5.74Q177.14 6.55 176.69 8.17L176.69 8.17L176.69 8.17Q176.25 9.79 175.95 12.04L175.95 12.04L175.95 12.04Q175.88 12.60 175.83 13.31L175.83 13.31L175.83 13.31Q175.78 14.03 175.78 14.91L175.78 14.91L175.78 14.91Q175.78 15.22 175.78 15.54L175.78 15.54L175.78 15.54Q175.78 15.86 175.81 16.21L175.81 16.21L175.81 16.21Q175.78 16.23 175.76 16.23L175.76 16.23L175.76 16.23Q175.73 16.23 175.64 16.23L175.64 16.23L175.64 16.23Q175.45 16.23 175.19 16.16L175.19 16.16L175.19 16.16Q174.93 16.10 174.68 16.01L174.68 16.01L174.68 16.01Q174.44 15.92 174.26 15.81L174.26 15.81L174.26 15.81Q174.09 15.69 174.05 15.61L174.05 15.61L174.05 15.61Q174.03 15.43 174.03 15.25L174.03 15.25L174.03 15.25Q174.03 15.08 174.03 14.88L174.03 14.88L174.03 14.88Q174.03 14.01 174.10 13.12L174.10 13.12L174.10 13.12Q174.16 12.22 174.31 11.27L174.31 11.27L174.31 11.27Q174.12 11.26 173.80 11.23L173.80 11.23L173.80 11.23Q173.47 11.21 173.07 11.20L173.07 11.20L173.07 11.20Q172.68 11.19 172.22 11.16L172.22 11.16L172.22 11.16Q171.77 11.14 171.33 11.13L171.33 11.13L171.33 11.13Q171.00 11.76 170.70 12.38L170.70 12.38L170.70 12.38Q170.41 13.01 170.20 13.64L170.20 13.64L170.20 13.64Q169.96 14.31 169.81 14.98L169.81 14.98L169.81 14.98Q169.67 15.65 169.62 16.24ZM175.03 7.83L175.03 7.83L175.03 7.83Q175.08 7.63 175.16 7.29L175.16 7.29L175.16 7.29Q175.24 6.94 175.31 6.57L175.31 6.57L175.31 6.57Q174.96 6.69 174.53 7.03L174.53 7.03L174.53 7.03Q174.10 7.36 173.65 7.86L173.65 7.86L173.65 7.86Q173.19 8.36 172.72 8.98L172.72 8.98L172.72 8.98Q172.26 9.60 171.82 10.30L171.82 10.30L171.82 10.30Q173.00 10.21 174.50 10.18L174.50 10.18L174.50 10.18Q174.61 9.59 174.74 9.01L174.74 9.01L174.74 9.01Q174.87 8.43 175.03 7.83ZM194.63 7.46L194.63 7.46L194.63 7.46Q194.63 8.33 194.15 9.01L194.15 9.01L194.15 9.01Q193.68 9.69 192.85 10.14L192.85 10.14L192.85 10.14Q193.38 10.50 193.70 11.03L193.70 11.03L193.70 11.03Q194.01 11.55 194.01 12.18L194.01 12.18L194.01 12.18Q194.01 12.94 193.56 13.67L193.56 13.67L193.56 13.67Q193.10 14.41 192.35 14.97L192.35 14.97L192.35 14.97Q191.59 15.54 190.62 15.89L190.62 15.89L190.62 15.89Q189.66 16.24 188.65 16.24L188.65 16.24L188.65 16.24Q187.56 16.24 186.74 15.83L186.74 15.83L186.74 15.83Q185.92 15.41 185.46 14.66L185.46 14.66L185.46 14.66Q185.60 14.24 185.83 13.62L185.83 13.62L185.83 13.62Q186.06 12.99 186.34 12.30L186.34 12.30L186.34 12.30Q186.62 11.61 186.91 10.92L186.91 10.92L186.91 10.92Q187.19 10.23 187.45 9.69L187.45 9.69L187.45 9.69Q187.98 8.50 188.40 7.71L188.40 7.71L188.40 7.71Q188.82 6.93 189.17 6.47L189.17 6.47L189.17 6.47Q188.40 6.71 187.77 7.01L187.77 7.01L187.77 7.01Q187.14 7.31 186.84 7.59L186.84 7.59L186.84 7.59Q186.72 7.50 186.58 7.34L186.58 7.34L186.58 7.34Q186.45 7.17 186.33 6.96L186.33 6.96L186.33 6.96Q186.21 6.76 186.14 6.55L186.14 6.55L186.14 6.55Q186.06 6.34 186.05 6.17L186.05 6.17L186.05 6.17Q186.41 5.92 186.99 5.69L186.99 5.69L186.99 5.69Q187.57 5.46 188.26 5.29L188.26 5.29L188.26 5.29Q188.94 5.12 189.66 5.03L189.66 5.03L189.66 5.03Q190.39 4.93 191.04 4.93L191.04 4.93L191.04 4.93Q192.72 4.93 193.68 5.60L193.68 5.60L193.68 5.60Q194.63 6.27 194.63 7.46ZM189.29 10.81L189.29 10.81L189.29 10.81Q189.03 10.68 188.80 10.43L188.80 10.43L188.80 10.43Q188.48 11.14 188.19 11.83L188.19 11.83L188.19 11.83Q187.91 12.52 187.68 13.10L187.68 13.10L187.68 13.10Q187.46 13.69 187.32 14.13L187.32 14.13L187.32 14.13Q187.18 14.56 187.17 14.76L187.17 14.76L187.17 14.76Q187.36 14.87 187.63 14.92L187.63 14.92L187.63 14.92Q187.91 14.98 188.31 14.98L188.31 14.98L188.31 14.98Q189.27 14.98 190.13 14.71L190.13 14.71L190.13 14.71Q191.00 14.45 191.66 13.99L191.66 13.99L191.66 13.99Q192.32 13.54 192.71 12.95L192.71 12.95L192.71 12.95Q193.10 12.36 193.10 11.72L193.10 11.72L193.10 11.72Q193.10 10.79 192.30 10.39L192.30 10.39L192.30 10.39Q191.21 10.84 189.84 10.84L189.84 10.84L189.84 10.84Q189.64 10.84 189.54 10.84L189.54 10.84L189.54 10.84Q189.43 10.84 189.29 10.81ZM192.01 5.95L192.01 5.95L192.01 5.95Q191.72 5.95 191.39 5.98L191.39 5.98L191.39 5.98Q191.06 6.02 190.69 6.09L190.69 6.09L190.69 6.09Q190.75 6.15 190.78 6.21L190.78 6.21L190.78 6.21Q190.82 6.27 190.85 6.34L190.85 6.34L190.85 6.34Q190.72 6.51 190.54 6.83L190.54 6.83L190.54 6.83Q190.36 7.15 190.13 7.58L190.13 7.58L190.13 7.58Q189.91 8.01 189.66 8.53L189.66 8.53L189.66 8.53Q189.42 9.04 189.17 9.59L189.17 9.59L189.17 9.59Q189.41 9.53 189.75 9.50L189.75 9.50L189.75 9.50Q190.09 9.46 190.43 9.46L190.43 9.46L190.43 9.46Q190.61 9.46 190.78 9.48L190.78 9.48L190.78 9.48Q190.96 9.49 191.13 9.52L191.13 9.52L191.13 9.52Q191.80 9.41 192.34 9.19L192.34 9.19L192.34 9.19Q192.88 8.97 193.27 8.69L193.27 8.69L193.27 8.69Q193.66 8.40 193.87 8.05L193.87 8.05L193.87 8.05Q194.08 7.70 194.08 7.31L194.08 7.31L194.08 7.31Q194.08 6.64 193.55 6.29L193.55 6.29L193.55 6.29Q193.02 5.95 192.01 5.95ZM202.68 16.24L202.68 16.24L202.68 16.24Q202.01 16.04 201.75 15.85L201.75 15.85L201.75 15.85Q201.49 15.65 201.49 15.36L201.49 15.36L201.49 15.36Q201.49 15.13 201.61 14.73L201.61 14.73L201.61 14.73Q201.74 14.32 201.98 13.77L201.98 13.77L201.98 13.77Q202.23 13.22 202.57 12.54L202.57 12.54L202.57 12.54Q202.92 11.87 203.35 11.10L203.35 11.10L203.35 11.10Q202.99 11.09 202.70 11.08L202.70 11.08L202.70 11.08Q202.41 11.07 202.23 11.07L202.23 11.07L202.23 11.07Q202.31 10.86 202.71 10.71L202.71 10.71L202.71 10.71Q203.10 10.56 203.74 10.44L203.74 10.44L203.74 10.44Q204.29 9.53 204.91 8.71L204.91 8.71L204.91 8.71Q205.53 7.88 206.16 7.19L206.16 7.19L206.16 7.19Q206.79 6.50 207.42 5.97L207.42 5.97L207.42 5.97Q208.05 5.45 208.63 5.14L208.63 5.14L208.63 5.14Q208.64 5.04 208.65 4.97L208.65 4.97L208.65 4.97Q208.66 4.90 208.66 4.87L208.66 4.87L208.66 4.87Q208.85 4.87 209.18 4.97L209.18 4.97L209.18 4.97Q209.51 5.07 209.82 5.21L209.82 5.21L209.82 5.21Q210.14 5.35 210.38 5.49L210.38 5.49L210.38 5.49Q210.63 5.64 210.66 5.74L210.66 5.74L210.66 5.74Q210.20 6.55 209.75 8.17L209.75 8.17L209.75 8.17Q209.30 9.79 209.01 12.04L209.01 12.04L209.01 12.04Q208.94 12.60 208.89 13.31L208.89 13.31L208.89 13.31Q208.84 14.03 208.84 14.91L208.84 14.91L208.84 14.91Q208.84 15.22 208.84 15.54L208.84 15.54L208.84 15.54Q208.84 15.86 208.87 16.21L208.87 16.21L208.87 16.21Q208.84 16.23 208.81 16.23L208.81 16.23L208.81 16.23Q208.78 16.23 208.70 16.23L208.70 16.23L208.70 16.23Q208.50 16.23 208.24 16.16L208.24 16.16L208.24 16.16Q207.98 16.10 207.74 16.01L207.74 16.01L207.74 16.01Q207.49 15.92 207.32 15.81L207.32 15.81L207.32 15.81Q207.14 15.69 207.10 15.61L207.10 15.61L207.10 15.61Q207.09 15.43 207.09 15.25L207.09 15.25L207.09 15.25Q207.09 15.08 207.09 14.88L207.09 14.88L207.09 14.88Q207.09 14.01 207.15 13.12L207.15 13.12L207.15 13.12Q207.21 12.22 207.37 11.27L207.37 11.27L207.37 11.27Q207.17 11.26 206.85 11.23L206.85 11.23L206.85 11.23Q206.53 11.21 206.13 11.20L206.13 11.20L206.13 11.20Q205.73 11.19 205.27 11.16L205.27 11.16L205.27 11.16Q204.82 11.14 204.39 11.13L204.39 11.13L204.39 11.13Q204.05 11.76 203.76 12.38L203.76 12.38L203.76 12.38Q203.46 13.01 203.25 13.64L203.25 13.64L203.25 13.64Q203.01 14.31 202.87 14.98L202.87 14.98L202.87 14.98Q202.72 15.65 202.68 16.24ZM208.08 7.83L208.08 7.83L208.08 7.83Q208.14 7.63 208.21 7.29L208.21 7.29L208.21 7.29Q208.29 6.94 208.36 6.57L208.36 6.57L208.36 6.57Q208.01 6.69 207.58 7.03L207.58 7.03L207.58 7.03Q207.16 7.36 206.70 7.86L206.70 7.86L206.70 7.86Q206.25 8.36 205.78 8.98L205.78 8.98L205.78 8.98Q205.31 9.60 204.88 10.30L204.88 10.30L204.88 10.30Q206.05 10.21 207.55 10.18L207.55 10.18L207.55 10.18Q207.66 9.59 207.79 9.01L207.79 9.01L207.79 9.01Q207.93 8.43 208.08 7.83ZM227.07 5.74L227.07 5.74L227.07 5.74Q227.11 5.98 227.13 6.07L227.13 6.07L227.13 6.07Q227.15 6.16 227.15 6.31L227.15 6.31L227.15 6.31Q227.15 6.78 226.95 7.18L226.95 7.18L226.95 7.18Q226.74 7.57 226.39 7.74L226.39 7.74L226.39 7.74Q226.11 7.36 225.71 7.09L225.71 7.09L225.71 7.09Q225.30 6.82 224.82 6.64L224.82 6.64L224.82 6.64Q224.34 6.47 223.82 6.38L223.82 6.38L223.82 6.38Q223.30 6.30 222.81 6.30L222.81 6.30L222.81 6.30Q222.32 6.30 221.89 6.38L221.89 6.38L221.89 6.38Q221.47 6.45 221.14 6.59L221.14 6.59L221.14 6.59Q220.81 6.72 220.62 6.92L220.62 6.92L220.62 6.92Q220.43 7.11 220.43 7.36L220.43 7.36L220.43 7.36Q220.47 7.67 220.81 7.99L220.81 7.99L220.81 7.99Q221.14 8.30 221.63 8.60L221.63 8.60L221.63 8.60Q222.12 8.90 222.72 9.20L222.72 9.20L222.72 9.20Q223.31 9.49 223.89 9.76L223.89 9.76L223.89 9.76Q224.60 10.09 225.12 10.38L225.12 10.38L225.12 10.38Q225.64 10.67 225.97 11.01L225.97 11.01L225.97 11.01Q226.31 11.35 226.48 11.79L226.48 11.79L226.48 11.79Q226.65 12.22 226.65 12.84L226.65 12.84L226.65 12.84Q226.65 13.55 226.41 14.18L226.41 14.18L226.41 14.18Q226.17 14.80 225.71 15.26L225.71 15.26L225.71 15.26Q225.26 15.72 224.62 15.98L224.62 15.98L224.62 15.98Q223.97 16.24 223.17 16.24L223.17 16.24L223.17 16.24Q222.39 16.24 221.48 16.00L221.48 16.00L221.48 16.00Q220.57 15.76 219.78 15.35L219.78 15.35L219.78 15.35Q218.99 14.94 218.46 14.40L218.46 14.40L218.46 14.40Q217.94 13.86 217.94 13.26L217.94 13.26L217.94 13.26Q217.94 12.98 218.10 12.54L218.10 12.54L218.10 12.54Q218.26 12.11 218.68 11.63L218.68 11.63L218.68 11.63Q218.72 12.05 219.13 12.63L219.13 12.63L219.13 12.63Q219.55 13.20 220.37 13.69L220.37 13.69L220.37 13.69Q221.14 14.14 221.96 14.34L221.96 14.34L221.96 14.34Q222.78 14.55 223.50 14.55L223.50 14.55L223.50 14.55Q224.28 14.55 224.77 14.35L224.77 14.35L224.77 14.35Q225.26 14.15 225.54 13.88L225.54 13.88L225.54 13.88Q225.82 13.61 225.93 13.33L225.93 13.33L225.93 13.33Q226.04 13.05 226.06 12.88L226.06 12.88L226.06 12.88Q226.04 12.60 225.80 12.34L225.80 12.34L225.80 12.34Q225.55 12.08 225.14 11.84L225.14 11.84L225.14 11.84Q224.73 11.59 224.18 11.34L224.18 11.34L224.18 11.34Q223.64 11.09 223.05 10.84L223.05 10.84L223.05 10.84Q222.17 10.44 221.53 10.10L221.53 10.10L221.53 10.10Q220.89 9.76 220.48 9.40L220.48 9.40L220.48 9.40Q220.07 9.04 219.88 8.65L219.88 8.65L219.88 8.65Q219.69 8.26 219.69 7.76L219.69 7.76L219.69 7.76Q219.69 6.97 220.16 6.27L220.16 6.27L220.16 6.27Q220.64 5.57 221.54 5.21L221.54 5.21L221.54 5.21Q221.98 5.01 222.49 4.93L222.49 4.93L222.49 4.93Q223.01 4.84 223.50 4.84L223.50 4.84L223.50 4.84Q224.42 4.84 225.30 5.10L225.30 5.10L225.30 5.10Q226.18 5.35 227.07 5.74ZM240.55 9.21L240.55 9.21L240.55 9.21Q241.01 9.21 241.27 9.46L241.27 9.46L241.27 9.46Q241.53 9.72 241.53 10.16L241.53 10.16L241.53 10.16Q241.53 10.28 241.51 10.39L241.51 10.39L241.51 10.39Q241.49 10.51 241.46 10.60L241.46 10.60L241.46 10.60Q241.28 10.57 241.05 10.55L241.05 10.55L241.05 10.55Q240.83 10.53 240.52 10.53L240.52 10.53L240.52 10.53Q239.92 10.53 239.30 10.63L239.30 10.63L239.30 10.63Q238.69 10.74 238.13 10.81L238.13 10.81L238.13 10.81Q237.80 11.55 237.54 12.24L237.54 12.24L237.54 12.24Q237.27 12.94 237.08 13.51L237.08 13.51L237.08 13.51Q236.89 14.08 236.79 14.50L236.79 14.50L236.79 14.50Q236.68 14.92 236.67 15.13L236.67 15.13L236.67 15.13Q237.80 14.90 238.96 14.73L238.96 14.73L238.96 14.73Q240.11 14.56 241.39 14.48L241.39 14.48L241.39 14.48Q241.54 14.71 241.65 14.99L241.65 14.99L241.65 14.99Q241.75 15.27 241.75 15.60L241.75 15.60L241.75 15.60Q241.75 15.68 241.75 15.78L241.75 15.78L241.75 15.78Q241.75 15.88 241.72 15.97L241.72 15.97L241.72 15.97Q241.33 15.96 240.90 15.95L240.90 15.95L240.90 15.95Q240.46 15.95 239.76 15.95L239.76 15.95L239.76 15.95Q239.30 15.95 238.89 15.97L238.89 15.97L238.89 15.97Q238.48 15.99 238.06 16.03L238.06 16.03L238.06 16.03Q237.64 16.07 237.17 16.14L237.17 16.14L237.17 16.14Q236.70 16.21 236.11 16.31L236.11 16.31L236.11 16.31Q235.47 16.06 234.86 15.08L234.86 15.08L234.86 15.08Q235.10 14.57 235.53 13.54L235.53 13.54L235.53 13.54Q235.96 12.52 236.61 10.79L236.61 10.79L236.61 10.79Q235.98 10.60 235.79 10.09L235.79 10.09L235.79 10.09Q235.86 10.02 236.19 9.92L236.19 9.92L236.19 9.92Q236.53 9.81 237.02 9.70L237.02 9.70L237.02 9.70Q237.23 9.16 237.38 8.75L237.38 8.75L237.38 8.75Q237.52 8.34 237.64 7.99L237.64 7.99L237.64 7.99Q237.75 7.63 237.84 7.29L237.84 7.29L237.84 7.29Q237.93 6.94 238.01 6.54L238.01 6.54L238.01 6.54Q237.52 6.51 237.24 6.27L237.24 6.27L237.24 6.27Q236.96 6.02 236.96 5.63L236.96 5.63L236.96 5.63Q236.96 5.52 237.00 5.36L237.00 5.36L237.00 5.36Q237.03 5.21 237.08 5.10L237.08 5.10L237.08 5.10Q237.36 5.14 237.61 5.15L237.61 5.15L237.61 5.15Q237.87 5.17 238.29 5.17L238.29 5.17L238.29 5.17Q239.18 5.17 239.95 5.12L239.95 5.12L239.95 5.12Q240.72 5.07 241.34 5.01L241.34 5.01L241.34 5.01Q241.96 4.96 242.41 4.91L242.41 4.91L242.41 4.91Q242.86 4.86 243.10 4.86L243.10 4.86L243.10 4.86Q243.42 4.86 243.67 5.19L243.67 5.19L243.67 5.19Q243.92 5.53 244.05 6.15L244.05 6.15L244.05 6.15Q243.61 6.10 243.34 6.09L243.34 6.09L243.34 6.09Q243.07 6.08 242.86 6.08L242.86 6.08L242.86 6.08Q242.09 6.08 241.45 6.15L241.45 6.15L241.45 6.15Q240.81 6.23 240.23 6.31L240.23 6.31L240.23 6.31Q240.14 6.44 240.04 6.64L240.04 6.64L240.04 6.64Q239.93 6.83 239.76 7.18L239.76 7.18L239.76 7.18Q239.60 7.53 239.35 8.06L239.35 8.06L239.35 8.06Q239.11 8.60 238.76 9.39L238.76 9.39L238.76 9.39Q239.29 9.31 239.76 9.26L239.76 9.26L239.76 9.26Q240.23 9.21 240.55 9.21Z"></path></g></svg>